<?xml version="1.0" encoding="UTF-8" standalone="no"?>
<!-- Created with Inkscape (http://www.inkscape.org/) -->

<svg
   xmlns:dc="http://purl.org/dc/elements/1.1/"
   xmlns:cc="http://creativecommons.org/ns#"
   xmlns:rdf="http://www.w3.org/1999/02/22-rdf-syntax-ns#"
   xmlns:svg="http://www.w3.org/2000/svg"
   xmlns="http://www.w3.org/2000/svg"
   xmlns:xlink="http://www.w3.org/1999/xlink"
   xmlns:sodipodi="http://sodipodi.sourceforge.net/DTD/sodipodi-0.dtd"
   xmlns:inkscape="http://www.inkscape.org/namespaces/inkscape"
   sodipodi:docname="ic_launcher.svg"
   inkscape:version="0.91 r13725"
   version="1.1"
   id="svg3698"
   viewBox="0 0 484.38083 484.38083"
   height="136.70303mm"
   width="136.70303mm"
   inkscape:export-filename="/home/isoron/Android/uHabits/art/ic_launcher.png"
   inkscape:export-xdpi="185.8"
   inkscape:export-ydpi="185.8">
  <sodipodi:namedview
     showguides="false"
     inkscape:window-maximized="1"
     inkscape:window-y="0"
     inkscape:window-x="0"
     inkscape:window-height="748"
     inkscape:window-width="1364"
     showgrid="false"
     inkscape:current-layer="layer1"
     inkscape:document-units="px"
     inkscape:cy="214.2655"
     inkscape:cx="196.91685"
     inkscape:zoom="0.98994949"
     inkscape:pageshadow="2"
     inkscape:pageopacity="0.0"
     borderopacity="1.0"
     bordercolor="#666666"
     pagecolor="#ffffff"
     id="base"
     fit-margin-top="0"
     fit-margin-left="0"
     fit-margin-right="0"
     fit-margin-bottom="0" />
  <defs
     id="defs3700">
    <linearGradient
       inkscape:collect="always"
       id="linearGradient5225">
      <stop
         style="stop-color:#000000;stop-opacity:1;"
         offset="0"
         id="stop5227" />
      <stop
         style="stop-color:#000000;stop-opacity:0;"
         offset="1"
         id="stop5229" />
    </linearGradient>
    <linearGradient
       id="linearGradient4643"
       inkscape:collect="always">
      <stop
         id="stop4645"
         offset="0"
         style="stop-color:#000000;stop-opacity:1;" />
      <stop
         id="stop4647"
         offset="1"
         style="stop-color:#000000;stop-opacity:0;" />
    </linearGradient>
    <linearGradient
       id="linearGradient3005">
      <stop
         style="stop-color:#000000;stop-opacity:1"
         offset="0"
         id="stop4602" />
      <stop
         style="stop-color:#000000;stop-opacity:0"
         offset="1"
         id="stop4604" />
    </linearGradient>
    <linearGradient
       id="linearGradient4606">
      <stop
         id="stop3007"
         offset="0"
         style="stop-color:#2c73be;stop-opacity:1;" />
      <stop
         id="stop3009"
         offset="1"
         style="stop-color:#003750;stop-opacity:1;" />
    </linearGradient>
    <clipPath
       clipPathUnits="userSpaceOnUse"
       id="clipPath3602">
      <circle
         r="229"
         cy="549.41461"
         cx="414.47366"
         id="circle3604"
         style="fill:#1565c0;fill-opacity:1;stroke:none" />
    </clipPath>
    <filter
       inkscape:collect="always"
       style="color-interpolation-filters:sRGB"
       id="filter4580"
       x="-0.0288"
       width="1.0576"
       y="-0.0288"
       height="1.0576">
      <feGaussianBlur
         inkscape:collect="always"
         stdDeviation="5.496"
         id="feGaussianBlur4582" />
    </filter>
    <filter
       inkscape:collect="always"
       style="color-interpolation-filters:sRGB"
       id="filter4784"
       x="-0.024"
       width="1.048"
       y="-0.024"
       height="1.048">
      <feGaussianBlur
         inkscape:collect="always"
         stdDeviation="1.2342857"
         id="feGaussianBlur4786" />
    </filter>
    <linearGradient
       gradientUnits="userSpaceOnUse"
       y2="376.04584"
       x2="360.95071"
       y1="254.60056"
       x1="239.50543"
       id="linearGradient4649"
       xlink:href="#linearGradient4643"
       inkscape:collect="always" />
    <linearGradient
       inkscape:collect="always"
       xlink:href="#linearGradient5225"
       id="linearGradient5231"
       x1="129.55206"
       y1="148.75766"
       x2="246.98228"
       y2="266.1879"
       gradientUnits="userSpaceOnUse" />
    <clipPath
       clipPathUnits="userSpaceOnUse"
       id="clipPath5333">
      <circle
         r="229"
         cy="238.1904"
         cx="238.1904"
         id="circle5335"
         style="fill:#135bad;fill-opacity:1;stroke:none" />
    </clipPath>
    <clipPath
       clipPathUnits="userSpaceOnUse"
       id="clipPath5339">
      <circle
         r="229"
         cy="238.1904"
         cx="238.1904"
         id="circle5341"
         style="fill:#135bad;fill-opacity:1;stroke:none" />
    </clipPath>
  </defs>
  <metadata
     id="metadata3703">
    <rdf:RDF>
      <cc:Work
         rdf:about="">
        <dc:format>image/svg+xml</dc:format>
        <dc:type
           rdf:resource="http://purl.org/dc/dcmitype/StillImage" />
        <dc:title />
      </cc:Work>
    </rdf:RDF>
  </metadata>
  <g
     id="layer1"
     inkscape:groupmode="layer"
     inkscape:label="Layer 1"
     transform="translate(-133.85684,-287.99069)">
    <circle
       r="229"
       cy="530.18109"
       cx="376.04724"
       id="circle3606"
       style="opacity:0.5;fill:#000000;fill-opacity:1;stroke:none;filter:url(#filter4580)" />
    <circle
       style="fill:#1976d2;fill-opacity:1;stroke:none"
       id="path3003"
       cx="372.04724"
       cy="526.18109"
       r="229" />
    <flowRoot
       xml:space="preserve"
       id="flowRoot4692"
       style="font-style:normal;font-variant:normal;font-weight:bold;font-stretch:normal;font-size:144px;font-family:GLYPHICONS;-inkscape-font-specification:'GLYPHICONS Bold';text-align:end;writing-mode:lr-tb;text-anchor:end;opacity:0.25;fill:#000000;fill-opacity:1;stroke:none;filter:url(#filter4784)"
       transform="matrix(1.0677632e-8,-2.2314814,2.2314814,1.0677632e-8,-29.763589,753.87715)"><flowRegion
         id="flowRegion4694"><rect
           id="rect4696"
           width="383"
           height="343"
           x="-221"
           y="79"
           style="font-size:144px;fill:#000000;fill-opacity:1;stroke:none;" /></flowRegion><flowPara
         id="flowPara4698"
         style="fill:#000000;fill-opacity:1;stroke:none;"></flowPara></flowRoot>    <g
       style="fill:url(#linearGradient4649);stroke:#000000;stroke-opacity:0;fill-opacity:1;opacity:0.1"
       transform="translate(133.85684,287.99069)"
       id="g4591"
       clip-path="url(#clipPath5333)">
      <g
         style="font-style:normal;font-variant:normal;font-weight:bold;font-stretch:normal;font-size:144px;font-family:GLYPHICONS;-inkscape-font-specification:'GLYPHICONS Bold';text-align:end;writing-mode:lr-tb;text-anchor:end;fill:url(#linearGradient4649);fill-opacity:1;stroke:#000000;stroke-opacity:0"
         id="g4593">
        <path
           style="fill:url(#linearGradient4649);stroke:#000000;stroke-opacity:0;fill-opacity:1"
           d="M322.24414 130.91406C389.51793 256.36672 342.91807 394.00755 160.26758 351.625L867.374361187 1058.73178119C1050.02485119 1101.11433119 1096.62471119 963.473501187 1029.35092119 838.020841187Z"
           id="path4595" />
        <path
           style="fill:url(#linearGradient4649);stroke:#000000;stroke-opacity:0;fill-opacity:1"
           d="M160.26758 351.625C182.45217 366.92469 209.30369 375.9043 238.18945 375.9043L945.296231187 1083.01108119C916.410471187 1083.01108119 889.558951187 1074.03147119 867.374361187 1058.73178119Z"
           id="path4597" />
        <path
           style="fill:url(#linearGradient4649);stroke:#000000;stroke-opacity:0;fill-opacity:1"
           d="M238.18945 375.9043C314.0399 375.9043 375.9043 314.0399 375.9043 238.18945L1083.01108119 945.296231187C1083.01108119 1021.14668119 1021.14668119 1083.01108119 945.296231187 1083.01108119Z"
           id="path4599" />
        <path
           style="fill:url(#linearGradient4649);stroke:#000000;stroke-opacity:0;fill-opacity:1"
           d="M375.9043 238.18945C375.9043 201.422227787 361.385081013 166.524528188 335.692659022 140.832106196L1042.79944021 847.938887383C1068.4918622 873.631309374 1083.01108119 908.529008974 1083.01108119 945.296231187Z"
           id="path4601" />
        <path
           style="fill:url(#linearGradient4649);stroke:#000000;stroke-opacity:0;fill-opacity:1"
           d="M335.692659022 140.832106196C332.69066172 137.830108894 329.536122855 134.953786158 326.23438 132.21484L1033.34116119 839.321621187C1036.64290404 842.060567345 1039.79744291 844.936890081 1042.79944021 847.938887383Z"
           id="path4603" />
        <path
           style="fill:url(#linearGradient4649);stroke:#000000;stroke-opacity:0;fill-opacity:1"
           d="M326.23438 132.21484C325.06882 131.31827 323.63384 130.86923 322.24414 130.91406L1029.35092119 838.020841187C1030.74062119 837.976011187 1032.17560119 838.425051187 1033.34116119 839.321621187Z"
           id="path4605" />
      </g>
      <path
         transform=""
         style="font-style:normal;font-variant:normal;font-weight:bold;font-stretch:normal;font-size:144px;font-family:GLYPHICONS;-inkscape-font-specification:'GLYPHICONS Bold';text-align:end;writing-mode:lr-tb;text-anchor:end;fill:url(#linearGradient4649);fill-opacity:1;stroke:#000000;stroke-opacity:0"
         d="m 322.24414,130.91406 c 67.27379,125.45266 20.67393,263.09349 -161.97656,220.71094 22.18459,15.29969 49.03611,24.2793 77.92187,24.2793 75.85045,0 137.71485,-61.8644 137.71485,-137.71485 0,-41.06324 -18.1104,-79.79455 -49.66992,-105.97461 -1.16556,-0.89657 -2.60054,-1.34561 -3.99024,-1.30078 z"
         id="flowRoot4425"
         inkscape:connector-curvature="0"
         sodipodi:nodetypes="ccsscc" />
    </g>
    <g
       id="g5114"
       transform="translate(133.85684,287.99069)"
       style="fill-opacity:1;fill:url(#linearGradient5231);opacity:0.1"
       clip-path="url(#clipPath5339)">
      <g
         id="g5116"
         style="font-style:normal;font-variant:normal;font-weight:bold;font-stretch:normal;font-size:144px;font-family:GLYPHICONS;-inkscape-font-specification:'GLYPHICONS Bold';text-align:end;writing-mode:lr-tb;text-anchor:end;fill:url(#linearGradient5231);fill-opacity:1;stroke:none">
        <path
           id="path5118"
           d="M123.42773 100.47656C118.76553 100.47656 114.64276 103.34449 112.84961 107.46875L819.956391187 814.575531187C821.749541187 810.451271187 825.872311187 807.583341187 830.534511187 807.583341187Z"
           style="fill-opacity:1;fill:url(#linearGradient5231)" />
        <path
           id="path5120"
           d="M112.84961 107.46875C111.094012359 111.682170631 111.916024848 116.583748916 115.148582021 119.816306089L822.255363208 826.923087276C819.022806035 823.690530103 818.200793546 818.788951818 819.956391187 814.575531187Z"
           style="fill-opacity:1;fill:url(#linearGradient5231)" />
        <path
           id="path5122"
           d="M115.148582021 119.816306089C115.217745063 119.885469131 115.288011602 119.953868131 115.35938 120.02148L822.466161187 827.128261187C822.394792788 827.060649317 822.32452625 826.992250318 822.255363208 826.923087276Z"
           style="fill-opacity:1;fill:url(#linearGradient5231)" />
        <path
           id="path5124"
           d="M115.35938 120.02148L138.49023 143.33203L845.597011187 850.438811187L822.466161187 827.128261187Z"
           style="fill-opacity:1;fill:url(#linearGradient5231)" />
        <path
           id="path5126"
           d="M138.49023 143.33203C114.64128 168.61551 100.47656 202.86431 100.47656 238.18945L807.583341187 945.296231187C807.583341187 909.971091187 821.748061187 875.722291187 845.597011187 850.438811187Z"
           style="fill-opacity:1;fill:url(#linearGradient5231)" />
        <path
           id="path5128"
           d="M100.47656 238.18945C100.47656 276.111789739 115.943046817 310.533405215 140.888083203 335.478441602L847.99486439 1042.58522279C823.049828004 1017.6401864 807.583341187 983.218570926 807.583341187 945.296231187Z"
           style="fill-opacity:1;fill:url(#linearGradient5231)" />
        <path
           id="path5130"
           d="M140.888083203 335.478441602C146.836068174 341.426426572 153.322959527 346.835617193 160.26758 351.625L867.374361187 1058.73178119C860.429740714 1053.94239838 853.942849361 1048.53320776 847.99486439 1042.58522279Z"
           style="fill-opacity:1;fill:url(#linearGradient5231)" />
        <path
           id="path5132"
           d="M160.26758 351.625L199.33594 321.33984L906.442721187 1028.44662119L867.374361187 1058.73178119Z"
           style="fill-opacity:1;fill:url(#linearGradient5231)" />
        <path
           id="path5134"
           d="M199.33594 321.33984C189.621515361 316.774807313 180.82761983 310.555826737 173.321265306 303.049472214L880.428046493 1010.1562534C887.934401016 1017.66260792 896.728296548 1023.8815885 906.442721187 1028.44662119Z"
           style="fill-opacity:1;fill:url(#linearGradient5231)" />
        <path
           id="path5136"
           d="M173.321265306 303.049472214C156.691286449 286.419493357 146.38086 263.47078206 146.38086 238.18945L853.487641187 945.296231187C853.487641187 970.577563246 863.798067636 993.526274543 880.428046493 1010.1562534Z"
           style="fill-opacity:1;fill:url(#linearGradient5231)" />
        <path
           id="path5138"
           d="M146.38086 238.18945C146.38086 214.69913 155.34682 192.46503 170.94727 175.60938L878.054051187 882.716161187C862.453601187 899.571811187 853.487641187 921.805911187 853.487641187 945.296231187Z"
           style="fill-opacity:1;fill:url(#linearGradient5231)" />
        <path
           id="path5140"
           d="M170.94727 175.60938L195.69336 200.35547L902.800141187 907.462251187L878.054051187 882.716161187Z"
           style="fill-opacity:1;fill:url(#linearGradient5231)" />
        <path
           id="path5142"
           d="M195.69336 200.35547C195.761030969 200.426900351 195.829489412 200.497226927 195.898710571 200.566448085L903.005491757 907.673229272C902.936270599 907.604008113 902.867812156 907.533681538 902.800141187 907.462251187Z"
           style="fill-opacity:1;fill:url(#linearGradient5231)" />
        <path
           id="path5144"
           d="M195.898710571 200.566448085C199.131108274 203.798845789 204.026668298 204.620794924 208.06445 202.86523L915.171231187 909.972011187C911.133449484 911.72757611 906.237889461 910.905626975 903.005491757 907.673229272Z"
           style="fill-opacity:1;fill:url(#linearGradient5231)" />
        <path
           id="path5146"
           d="M208.06445 202.86523C212.36802 201.07208 215.23828 196.94736 215.23828 192.28516L922.345061187 899.391941187C922.345061187 904.054141187 919.474801187 908.178861187 915.171231187 909.972011187Z"
           style="fill-opacity:1;fill:url(#linearGradient5231)" />
        <path
           id="path5148"
           d="M215.23828 192.28516L215.23828 111.95312L922.345061187 819.059901187L922.345061187 899.391941187Z"
           style="fill-opacity:1;fill:url(#linearGradient5231)" />
        <path
           id="path5150"
           d="M215.23828 111.95312C215.23828 108.748333617 213.882236759 105.823990656 211.719392737 103.729333579L918.826173923 810.836114765C920.989017945 812.930771843 922.345061187 815.855114804 922.345061187 819.059901187Z"
           style="fill-opacity:1;fill:url(#linearGradient5231)" />
        <path
           id="path5152"
           d="M211.719392737 103.729333579C209.646667216 101.72195388 206.832973617 100.47656 203.76172 100.47656L910.868501187 807.583341187C913.939754804 807.583341187 916.753448402 808.828735066 918.826173923 810.836114765Z"
           style="fill-opacity:1;fill:url(#linearGradient5231)" />
        <path
           id="path5154"
           d="M203.76172 100.47656L123.42773 100.47656L830.534511187 807.583341187L910.868501187 807.583341187Z"
           style="fill-opacity:1;fill:url(#linearGradient5231)" />
      </g>
      <path
         style="font-style:normal;font-variant:normal;font-weight:bold;font-stretch:normal;font-size:144px;font-family:GLYPHICONS;-inkscape-font-specification:'GLYPHICONS Bold';text-align:end;writing-mode:lr-tb;text-anchor:end;fill:url(#linearGradient5231);fill-opacity:1;stroke:none"
         d="M 123.42773 100.47656 C 118.76553 100.47656 114.64276 103.34449 112.84961 107.46875 C 111.05645 111.77232 111.95238 116.79381 115.35938 120.02148 L 138.49023 143.33203 C 114.64128 168.61551 100.47656 202.86431 100.47656 238.18945 C 100.47656 285.15413 124.19817 326.7496 160.26758 351.625 L 199.33594 321.33984 C 168.09966 306.66119 146.38086 274.88214 146.38086 238.18945 C 146.38086 214.69913 155.34682 192.46503 170.94727 175.60938 L 195.69336 200.35547 C 198.92104 203.76246 203.9402 204.65839 208.06445 202.86523 C 212.36802 201.07208 215.23828 196.94736 215.23828 192.28516 L 215.23828 111.95312 C 215.23828 105.67708 210.03776 100.47656 203.76172 100.47656 L 123.42773 100.47656 z "
         id="flowRoot4436"
         transform="" />
    </g>
    <flowRoot
       transform="matrix(1.0677632e-8,-2.2314814,2.2314814,1.0677632e-8,-33.763589,749.87715)"
       style="font-style:normal;font-variant:normal;font-weight:bold;font-stretch:normal;font-size:144px;font-family:GLYPHICONS;-inkscape-font-specification:'GLYPHICONS Bold';text-align:end;writing-mode:lr-tb;text-anchor:end;fill:#ffffff;fill-opacity:1;stroke:none"
       id="flowRoot3923"
       xml:space="preserve"><flowRegion
         id="flowRegion3925"><rect
           style="font-size:144px;fill:#ffffff;fill-opacity:1;stroke:none"
           y="79"
           x="-221"
           height="343"
           width="383"
           id="rect3927" /></flowRegion><flowPara
         style="fill:#ffffff;fill-opacity:1;stroke:none"
         id="flowPara3929"></flowPara></flowRoot>  </g>
</svg>
